<?xml version="1.0" standalone="no"?>
<!DOCTYPE svg PUBLIC "-//W3C//DTD SVG 20010904//EN"
 "http://www.w3.org/TR/2001/REC-SVG-20010904/DTD/svg10.dtd">
<svg version="1.0" xmlns="http://www.w3.org/2000/svg"
 width="250.000000pt" height="246.000000pt" viewBox="0 0 250.000000 246.000000"
 preserveAspectRatio="xMidYMid meet">

<g transform="translate(0.000000,246.000000) scale(0.100000,-0.100000)"
fill="#000000" stroke="none">
<path d="M867 2349 c-22 -11 -37 -23 -34 -25 7 -7 73 22 81 35 10 16 -4 13
-47 -10z"/>
<path d="M683 2328 c-25 -32 -26 -40 -4 -26 12 7 21 18 21 25 0 16 -5 16 -17
1z"/>
<path d="M1841 2283 c-1 -18 4 -33 9 -33 12 0 12 17 0 45 -7 17 -9 15 -9 -12z"/>
<path d="M665 2269 c-10 -15 3 -25 16 -12 7 7 7 13 1 17 -6 3 -14 1 -17 -5z"/>
<path d="M1820 2184 l-35 -12 27 -7 c30 -8 61 5 50 20 -5 7 -18 7 -42 -1z"/>
<path d="M672 2183 c-12 -2 -20 -9 -17 -14 9 -14 39 -11 61 6 19 14 19 14 -1
13 -11 0 -30 -3 -43 -5z"/>
<path d="M1357 2113 c-19 -38 -69 -135 -112 -218 -43 -82 -95 -182 -116 -221
-44 -80 -49 -100 -21 -85 22 12 136 227 127 241 -3 6 1 17 10 26 9 9 19 30 22
46 l6 31 18 -24 19 -24 0 33 c0 19 21 74 50 132 28 55 50 106 50 115 0 31 -19
13 -53 -52z"/>
<path d="M470 2150 c-6 -11 -7 -20 -2 -20 6 0 12 9 15 20 3 11 3 20 1 20 -2 0
-8 -9 -14 -20z"/>
<path d="M2037 2119 c-9 -34 -8 -59 2 -59 12 0 21 52 12 69 -6 10 -10 7 -14
-10z"/>
<path d="M485 2015 c-25 -11 -27 -14 -12 -20 19 -8 77 12 77 26 0 13 -30 10
-65 -6z"/>
<path d="M1995 2010 l-30 -6 29 -7 c29 -8 41 -5 35 10 -2 5 -17 6 -34 3z"/>
<path d="M2190 1947 c0 -16 -5 -38 -12 -50 -17 -31 -18 -47 -4 -47 27 0 46 79
26 110 -8 12 -10 9 -10 -13z"/>
<path d="M310 1939 c0 -5 5 -7 10 -4 6 3 10 8 10 11 0 2 -4 4 -10 4 -5 0 -10
-5 -10 -11z"/>
<path d="M327 1903 c-4 -3 -7 -11 -7 -17 0 -6 5 -5 12 2 6 6 9 14 7 17 -3 3
-9 2 -12 -2z"/>
<path d="M366 1825 c-40 -19 -46 -26 -32 -31 23 -9 86 21 86 41 0 18 5 19 -54
-10z"/>
<path d="M2120 1806 c0 -9 30 -14 35 -6 4 6 -3 10 -14 10 -12 0 -21 -2 -21 -4z"/>
<path d="M2300 1723 c0 -9 -12 -36 -26 -60 -27 -46 -26 -66 1 -43 36 29 62
120 35 120 -5 0 -10 -7 -10 -17z"/>
<path d="M295 1620 c-10 -11 -26 -22 -37 -26 -24 -7 -17 -30 8 -26 22 4 52 29
65 54 14 25 -13 24 -36 -2z"/>
<path d="M440 1509 c46 -12 512 -10 504 2 -3 5 -123 9 -272 8 -176 -1 -255 -4
-232 -10z"/>
<path d="M896 1227 c-81 -159 -145 -292 -141 -295 13 -14 49 45 170 281 86
166 137 254 154 265 37 25 417 27 431 3 7 -13 11 -14 21 -3 9 8 47 12 115 12
99 0 134 5 134 19 0 3 -166 6 -368 6 l-369 0 -147 -288z"/>
<path d="M1800 1510 c0 -5 18 -10 39 -10 22 0 43 5 46 10 4 6 -12 10 -39 10
-25 0 -46 -4 -46 -10z"/>
<path d="M973 1503 c9 -2 25 -2 35 0 9 3 1 5 -18 5 -19 0 -27 -2 -17 -5z"/>
<path d="M2366 1483 c-4 -16 -22 -45 -41 -65 -23 -24 -35 -46 -35 -65 1 -26 1
-26 12 -8 6 11 26 36 45 56 20 22 36 50 40 72 7 43 -12 52 -21 10z"/>
<path d="M242 1384 c-46 -49 -48 -65 -8 -46 30 13 59 55 54 76 -2 11 -16 2
-46 -30z"/>
<path d="M2390 1243 c0 -20 -87 -106 -100 -98 -6 4 -10 -5 -10 -19 0 -30 16
-43 24 -18 3 9 22 26 42 37 37 20 64 59 64 95 0 11 -4 20 -10 20 -5 0 -10 -8
-10 -17z"/>
<path d="M263 1183 c-3 -10 -17 -33 -30 -51 -26 -34 -25 -49 1 -39 30 12 72
107 47 107 -6 0 -14 -8 -18 -17z"/>
<path d="M660 1150 c0 -26 -6 -38 -22 -45 -30 -14 -49 -47 -38 -65 8 -12 15
-9 37 20 32 39 46 87 33 110 -7 11 -9 5 -10 -20z"/>
<path d="M986 957 c-12 -84 -73 -204 -135 -265 -29 -29 -56 -52 -61 -52 -6 0
-10 -7 -10 -16 0 -31 55 0 117 66 13 14 41 61 64 105 37 74 40 86 37 150 l-3
70 -9 -58z"/>
<path d="M2356 979 c-21 -35 -71 -69 -102 -69 -14 0 -24 -8 -28 -22 -8 -31 9
-45 23 -20 7 12 26 24 46 28 39 7 95 63 95 94 0 29 -13 25 -34 -11z"/>
<path d="M306 957 c-4 -19 -15 -46 -26 -60 -21 -27 -26 -47 -11 -47 31 0 75
110 54 131 -7 7 -13 -1 -17 -24z"/>
<path d="M1570 971 c0 -12 5 -21 10 -21 6 0 10 6 10 14 0 8 -4 18 -10 21 -5 3
-10 -3 -10 -14z"/>
<path d="M2041 890 c-1 -19 -4 -45 -7 -57 -4 -15 -2 -23 6 -23 6 0 10 6 7 13
-2 6 -1 19 4 28 4 9 4 29 -1 45 l-8 29 -1 -35z"/>
<path d="M1825 860 c-21 -16 -49 -30 -62 -30 -40 0 -73 -42 -73 -95 0 -25 5
-45 10 -45 6 0 10 12 10 26 0 42 19 64 73 90 29 13 63 30 77 38 14 8 34 17 45
21 16 5 17 8 5 15 -25 16 -46 11 -85 -20z"/>
<path d="M484 847 c-23 -21 -35 -40 -33 -52 4 -17 9 -15 44 16 22 20 53 39 69
43 23 6 27 9 15 17 -27 17 -59 9 -95 -24z"/>
<path d="M395 731 c-3 -22 -12 -47 -20 -57 -13 -18 -10 -44 5 -44 18 0 46 125
30 135 -4 3 -11 -13 -15 -34z"/>
<path d="M2122 740 c0 -14 2 -19 5 -12 2 6 2 18 0 25 -3 6 -5 1 -5 -13z"/>
<path d="M2279 734 c-33 -36 -57 -47 -109 -54 -37 -4 -46 -9 -48 -27 -4 -26
10 -30 28 -8 7 8 26 15 42 15 59 0 128 47 128 87 0 20 -14 15 -41 -13z"/>
<path d="M270 680 l-25 -6 23 -8 c24 -8 37 -3 31 12 -2 4 -15 5 -29 2z"/>
<path d="M1993 550 c-6 -17 -7 -30 -2 -30 9 0 24 48 17 55 -2 2 -9 -9 -15 -25z"/>
<path d="M531 538 c-1 -20 -5 -48 -11 -62 -7 -21 -6 -26 5 -26 21 0 29 43 17
87 l-10 38 -1 -37z"/>
<path d="M2165 514 c-11 -9 -39 -25 -62 -36 -24 -10 -43 -21 -43 -23 0 -3 15
-5 34 -5 38 0 99 37 104 63 4 21 -7 21 -33 1z"/>
<path d="M415 473 c-41 -10 -41 -24 0 -21 22 2 39 7 38 13 -2 12 -12 14 -38 8z"/>
<path d="M1975 459 c-10 -30 -1 -33 34 -11 31 19 32 20 9 26 -34 9 -36 8 -43
-15z"/>
<path d="M1830 420 c0 -8 -6 -27 -14 -42 -14 -26 -13 -27 5 -15 24 15 34 46
20 60 -8 8 -11 7 -11 -3z"/>
<path d="M718 330 c-6 -40 -3 -49 13 -33 8 8 8 20 2 40 l-10 28 -5 -35z"/>
<path d="M1975 303 c-22 -12 -56 -23 -75 -23 -26 0 -31 -3 -20 -10 41 -26 159
11 160 51 0 12 -26 5 -65 -18z"/>
<path d="M612 298 c-6 -6 -31 -15 -54 -18 l-43 -7 39 -8 c41 -8 113 16 101 35
-8 13 -28 13 -43 -2z"/>
<path d="M1780 295 c-7 -8 -10 -18 -7 -21 9 -10 48 7 44 19 -6 18 -23 19 -37
2z"/>
<path d="M1597 149 c-50 -31 -67 -60 -19 -34 34 18 76 54 71 60 -3 2 -26 -9
-52 -26z"/>
</g>
</svg>
